<svg xmlns="http://www.w3.org/2000/svg" xmlns:xlink="http://www.w3.org/1999/xlink" width="300" zoomAndPan="magnify" viewBox="0 0 900 599.999999" height="300" preserveAspectRatio="xMidYMid meet" version="1.0"><defs><clipPath id="dfa95f52f9"><path d="M 85.234375 106 L 311.734375 106 L 311.734375 336 L 85.234375 336 Z M 85.234375 106 " clip-rule="nonzero"/></clipPath></defs><path fill="#ffffff" d="M 299.773438 218.105469 C 299.773438 219.757812 299.734375 221.40625 299.652344 223.054688 C 299.570312 224.699219 299.449219 226.34375 299.289062 227.988281 C 299.125 229.628906 298.925781 231.265625 298.683594 232.898438 C 298.441406 234.53125 298.15625 236.15625 297.835938 237.773438 C 297.515625 239.390625 297.152344 241 296.753906 242.601562 C 296.351562 244.199219 295.910156 245.789062 295.433594 247.367188 C 294.953125 248.945312 294.4375 250.511719 293.878906 252.066406 C 293.324219 253.621094 292.730469 255.160156 292.097656 256.683594 C 291.46875 258.207031 290.800781 259.714844 290.09375 261.207031 C 289.386719 262.695312 288.648438 264.171875 287.867188 265.625 C 287.089844 267.078125 286.277344 268.515625 285.429688 269.929688 C 284.582031 271.34375 283.699219 272.738281 282.78125 274.109375 C 281.867188 275.480469 280.917969 276.828125 279.933594 278.15625 C 278.949219 279.480469 277.9375 280.78125 276.890625 282.054688 C 275.84375 283.332031 274.765625 284.578125 273.65625 285.800781 C 272.546875 287.023438 271.410156 288.21875 270.246094 289.386719 C 269.078125 290.550781 267.882812 291.6875 266.660156 292.796875 C 265.4375 293.90625 264.1875 294.980469 262.914062 296.027344 C 261.636719 297.074219 260.335938 298.089844 259.011719 299.074219 C 257.6875 300.054688 256.339844 301.003906 254.96875 301.921875 C 253.59375 302.835938 252.203125 303.71875 250.785156 304.566406 C 249.371094 305.417969 247.9375 306.230469 246.480469 307.007812 C 245.027344 307.785156 243.550781 308.527344 242.0625 309.230469 C 240.570312 309.9375 239.0625 310.605469 237.535156 311.238281 C 236.011719 311.867188 234.472656 312.460938 232.917969 313.015625 C 231.367188 313.574219 229.800781 314.089844 228.222656 314.570312 C 226.640625 315.046875 225.050781 315.488281 223.453125 315.890625 C 221.851562 316.289062 220.242188 316.652344 218.625 316.972656 C 217.003906 317.292969 215.378906 317.578125 213.75 317.820312 C 212.117188 318.0625 210.480469 318.261719 208.835938 318.425781 C 207.195312 318.585938 205.550781 318.707031 203.902344 318.789062 C 202.253906 318.871094 200.605469 318.910156 198.957031 318.910156 C 197.304688 318.910156 195.65625 318.871094 194.007812 318.789062 C 192.359375 318.707031 190.714844 318.585938 189.074219 318.425781 C 187.429688 318.261719 185.792969 318.0625 184.164062 317.820312 C 182.53125 317.578125 180.90625 317.292969 179.285156 316.972656 C 177.667969 316.652344 176.058594 316.289062 174.457031 315.890625 C 172.859375 315.488281 171.269531 315.046875 169.6875 314.570312 C 168.109375 314.089844 166.542969 313.574219 164.992188 313.015625 C 163.4375 312.460938 161.898438 311.867188 160.375 311.238281 C 158.847656 310.605469 157.339844 309.9375 155.851562 309.230469 C 154.359375 308.527344 152.886719 307.785156 151.429688 307.007812 C 149.976562 306.230469 148.539062 305.417969 147.125 304.566406 C 145.710938 303.71875 144.316406 302.835938 142.945312 301.921875 C 141.570312 301.003906 140.222656 300.054688 138.898438 299.074219 C 137.574219 298.089844 136.273438 297.074219 134.996094 296.027344 C 133.722656 294.980469 132.472656 293.90625 131.25 292.796875 C 130.027344 291.6875 128.832031 290.550781 127.664062 289.386719 C 126.5 288.21875 125.363281 287.023438 124.253906 285.800781 C 123.144531 284.578125 122.070312 283.332031 121.023438 282.054688 C 119.976562 280.78125 118.960938 279.480469 117.976562 278.15625 C 116.996094 276.828125 116.042969 275.480469 115.128906 274.109375 C 114.210938 272.738281 113.328125 271.34375 112.480469 269.929688 C 111.632812 268.515625 110.820312 267.078125 110.042969 265.625 C 109.261719 264.171875 108.523438 262.695312 107.816406 261.207031 C 107.109375 259.714844 106.441406 258.207031 105.8125 256.683594 C 105.179688 255.160156 104.585938 253.621094 104.03125 252.066406 C 103.472656 250.511719 102.957031 248.945312 102.476562 247.367188 C 102 245.789062 101.558594 244.199219 101.160156 242.601562 C 100.757812 241 100.394531 239.390625 100.074219 237.773438 C 99.753906 236.15625 99.46875 234.53125 99.226562 232.898438 C 98.984375 231.265625 98.785156 229.628906 98.621094 227.988281 C 98.460938 226.34375 98.339844 224.699219 98.257812 223.054688 C 98.175781 221.40625 98.136719 219.757812 98.136719 218.105469 C 98.136719 216.457031 98.175781 214.808594 98.257812 213.160156 C 98.339844 211.511719 98.460938 209.867188 98.621094 208.226562 C 98.785156 206.585938 98.984375 204.949219 99.226562 203.316406 C 99.46875 201.683594 99.753906 200.058594 100.074219 198.441406 C 100.394531 196.824219 100.757812 195.214844 101.160156 193.613281 C 101.558594 192.015625 102 190.425781 102.476562 188.84375 C 102.957031 187.265625 103.472656 185.699219 104.03125 184.148438 C 104.585938 182.59375 105.179688 181.054688 105.8125 179.53125 C 106.441406 178.007812 107.109375 176.5 107.816406 175.007812 C 108.523438 173.515625 109.261719 172.042969 110.042969 170.589844 C 110.820312 169.132812 111.632812 167.699219 112.480469 166.285156 C 113.328125 164.867188 114.210938 163.476562 115.128906 162.105469 C 116.042969 160.730469 116.996094 159.382812 117.976562 158.058594 C 118.960938 156.734375 119.976562 155.433594 121.023438 154.160156 C 122.070312 152.882812 123.144531 151.632812 124.253906 150.410156 C 125.363281 149.191406 126.5 147.996094 127.664062 146.828125 C 128.832031 145.664062 130.027344 144.523438 131.25 143.417969 C 132.472656 142.308594 133.722656 141.230469 134.996094 140.183594 C 136.273438 139.140625 137.574219 138.125 138.898438 137.140625 C 140.222656 136.160156 141.570312 135.210938 142.945312 134.292969 C 144.316406 133.375 145.710938 132.492188 147.125 131.644531 C 148.539062 130.796875 149.976562 129.984375 151.429688 129.207031 C 152.886719 128.429688 154.359375 127.6875 155.851562 126.984375 C 157.339844 126.277344 158.847656 125.609375 160.375 124.976562 C 161.898438 124.347656 163.4375 123.753906 164.992188 123.195312 C 166.542969 122.640625 168.109375 122.125 169.6875 121.644531 C 171.269531 121.167969 172.859375 120.726562 174.457031 120.324219 C 176.058594 119.925781 177.667969 119.5625 179.285156 119.242188 C 180.90625 118.917969 182.53125 118.636719 184.164062 118.394531 C 185.792969 118.152344 187.429688 117.953125 189.074219 117.789062 C 190.714844 117.628906 192.359375 117.507812 194.007812 117.425781 C 195.65625 117.34375 197.304688 117.304688 198.957031 117.304688 C 200.605469 117.304688 202.253906 117.34375 203.902344 117.425781 C 205.550781 117.507812 207.195312 117.628906 208.835938 117.789062 C 210.480469 117.953125 212.117188 118.152344 213.75 118.394531 C 215.378906 118.636719 217.003906 118.917969 218.625 119.242188 C 220.242188 119.5625 221.851562 119.925781 223.453125 120.324219 C 225.050781 120.726562 226.640625 121.167969 228.222656 121.644531 C 229.800781 122.125 231.367188 122.640625 232.917969 123.195312 C 234.472656 123.753906 236.011719 124.347656 237.535156 124.976562 C 239.0625 125.609375 240.570312 126.277344 242.0625 126.984375 C 243.550781 127.6875 245.027344 128.429688 246.480469 129.207031 C 247.9375 129.984375 249.371094 130.796875 250.785156 131.644531 C 252.203125 132.492188 253.59375 133.375 254.96875 134.292969 C 256.339844 135.210938 257.6875 136.160156 259.011719 137.140625 C 260.335938 138.125 261.636719 139.140625 262.914062 140.183594 C 264.1875 141.230469 265.4375 142.308594 266.660156 143.417969 C 267.882812 144.523438 269.078125 145.664062 270.246094 146.828125 C 271.410156 147.996094 272.546875 149.191406 273.65625 150.414062 C 274.765625 151.632812 275.84375 152.882812 276.890625 154.160156 C 277.933594 155.433594 278.949219 156.734375 279.933594 158.058594 C 280.917969 159.382812 281.867188 160.730469 282.78125 162.105469 C 283.699219 163.476562 284.582031 164.867188 285.429688 166.285156 C 286.277344 167.699219 287.089844 169.132812 287.867188 170.589844 C 288.648438 172.042969 289.386719 173.515625 290.09375 175.007812 C 290.800781 176.5 291.46875 178.007812 292.097656 179.53125 C 292.730469 181.054688 293.324219 182.59375 293.878906 184.148438 C 294.4375 185.699219 294.953125 187.265625 295.433594 188.84375 C 295.910156 190.425781 296.351562 192.015625 296.753906 193.613281 C 297.152344 195.214844 297.515625 196.824219 297.835938 198.441406 C 298.160156 200.058594 298.441406 201.683594 298.683594 203.316406 C 298.925781 204.949219 299.125 206.585938 299.289062 208.226562 C 299.449219 209.867188 299.570312 211.511719 299.652344 213.160156 C 299.734375 214.808594 299.773438 216.457031 299.773438 218.105469 Z M 299.773438 218.105469 " fill-opacity="1" fill-rule="nonzero"/><g clip-path="url(#dfa95f52f9)"><path fill="#56b48c" d="M 283.855469 145.921875 C 281.941406 143.6875 279.941406 141.53125 277.859375 139.453125 C 275.777344 137.375 273.617188 135.382812 271.375 133.476562 C 269.136719 131.566406 266.824219 129.75 264.441406 128.027344 C 262.058594 126.300781 259.613281 124.671875 257.101562 123.136719 C 254.589844 121.601562 252.023438 120.171875 249.398438 118.839844 C 246.773438 117.507812 244.101562 116.28125 241.382812 115.160156 C 238.664062 114.039062 235.902344 113.027344 233.101562 112.121094 C 230.300781 111.21875 227.472656 110.425781 224.609375 109.746094 C 221.746094 109.0625 218.863281 108.496094 215.953125 108.039062 C 213.046875 107.585938 210.128906 107.246094 207.195312 107.023438 C 204.261719 106.796875 201.320312 106.6875 198.378906 106.695312 C 195.4375 106.703125 192.5 106.824219 189.566406 107.0625 C 186.632812 107.296875 183.714844 107.652344 180.808594 108.117188 C 177.90625 108.585938 175.023438 109.164062 172.164062 109.859375 C 169.304688 110.554688 166.476562 111.359375 163.679688 112.273438 C 160.886719 113.191406 158.128906 114.214844 155.414062 115.347656 C 150.472656 117.425781 145.707031 119.839844 141.105469 122.59375 C 136.507812 125.34375 132.125 128.402344 127.957031 131.773438 C 123.792969 135.144531 119.882812 138.789062 116.230469 142.710938 C 112.578125 146.632812 109.222656 150.789062 106.15625 155.183594 C 103.699219 158.710938 101.441406 162.359375 99.378906 166.128906 C 95.074219 174.078125 91.75 182.417969 89.410156 191.148438 C 87.070312 199.882812 85.78125 208.765625 85.539062 217.804688 C 85.539062 218.910156 85.449219 220.015625 85.449219 221.136719 C 85.4375 224.320312 85.558594 227.492188 85.808594 230.664062 C 86.0625 233.835938 86.449219 236.988281 86.964844 240.125 C 87.484375 243.265625 88.128906 246.375 88.90625 249.460938 C 89.683594 252.542969 90.589844 255.589844 91.621094 258.597656 C 92.652344 261.605469 93.804688 264.566406 95.085938 267.476562 C 96.363281 270.390625 97.761719 273.242188 99.277344 276.039062 C 100.796875 278.832031 102.425781 281.5625 104.171875 284.21875 C 105.917969 286.878906 107.769531 289.460938 109.730469 291.964844 C 111.691406 294.46875 113.753906 296.886719 115.914062 299.21875 C 118.078125 301.550781 120.335938 303.789062 122.683594 305.933594 C 125.035156 308.074219 127.46875 310.117188 129.988281 312.058594 C 132.507812 314 135.105469 315.832031 137.777344 317.554688 C 140.453125 319.277344 143.191406 320.886719 146 322.378906 C 148.808594 323.875 151.671875 325.25 154.597656 326.503906 C 157.519531 327.761719 160.488281 328.890625 163.503906 329.898438 C 166.523438 330.90625 169.574219 331.785156 172.667969 332.535156 C 181.195312 334.558594 189.84375 335.566406 198.605469 335.570312 C 261.097656 335.570312 311.765625 284.332031 311.765625 221.125 C 311.773438 217.707031 311.625 214.296875 311.328125 210.894531 C 311.03125 207.488281 310.578125 204.105469 309.980469 200.742188 C 309.378906 197.378906 308.628906 194.050781 307.730469 190.753906 C 306.832031 187.457031 305.789062 184.207031 304.601562 181.003906 C 303.410156 177.800781 302.082031 174.65625 300.613281 171.574219 C 299.140625 168.488281 297.539062 165.476562 295.796875 162.535156 C 294.058594 159.59375 292.191406 156.738281 290.199219 153.960938 C 288.203125 151.1875 286.089844 148.507812 283.855469 145.921875 Z M 240.617188 233.066406 L 212.386719 233.066406 L 212.386719 262.125 L 183.324219 262.125 L 183.324219 233.066406 L 155.09375 233.066406 L 155.09375 204.675781 L 183.324219 204.675781 L 183.324219 175.617188 L 212.386719 175.617188 L 212.386719 204.675781 L 240.617188 204.675781 Z M 240.617188 233.066406 " fill-opacity="1" fill-rule="nonzero"/></g></svg>